<svg width="21" height="27" viewBox="0 0 21 27" fill="none" xmlns="http://www.w3.org/2000/svg">
<path d="M14.3 7.7125C14.3 7.7125 15.7464 7 10.5 7C8.62108 7 6.78435 7.55716 5.22209 8.60104C3.65982 9.64491 2.44218 11.1286 1.72315 12.8645C1.00412 14.6004 0.815985 16.5105 1.18254 18.3534C1.5491 20.1962 2.45389 21.8889 3.78249 23.2175C5.11109 24.5461 6.80383 25.4509 8.64665 25.8175C10.4895 26.184 12.3996 25.9959 14.1355 25.2769C15.8714 24.5578 17.3551 23.3402 18.399 21.7779C19.4428 20.2156 20 18.3789 20 16.5" stroke="white" stroke-width="2" stroke-miterlimit="10" stroke-linecap="square"/>
<path d="M11 2L15 7L11 12" stroke="white" stroke-width="2" stroke-miterlimit="10" stroke-linecap="square"/>
</svg>
